<mxfile host="app.diagrams.net" modified="2023-07-20T05:05:29.877Z" agent="Mozilla/5.0 (Macintosh; Intel Mac OS X 10_15_7) AppleWebKit/537.36 (KHTML, like Gecko) Chrome/114.0.0.0 Safari/537.36" version="21.6.3" etag="kRC8t7Dx63SMf8i3JbbS" type="github">
  <diagram name="페이지-1" id="vktXkGkManksWIU8s8jN">
    <mxGraphModel>
      <root>
        <mxCell id="0" />
        <mxCell id="1" parent="0" />
      </root>
    </mxGraphModel>
  </diagram>
</mxfile>
